# xmcd
#
# Track frame offsets: 
#        150
#        15875
#        34955
#        55563
#        70490
#        88373
#        107588
#        128705
#        144065
#        164223
#        187680
#        204248
#        223173
#        236143
#        252970
#
# Disc length: 3475 seconds
#
# Revision: 3
# Processed by: cddbd v1.5.2PL0 Copyright (c) Steve Scherf et al.
# Submitted via: ExactAudioCopyFreeDBPlugin 1.0
#
DISCID=cf0d910f
DTITLE=East Blues  Experience - Red Balloon
DYEAR=2002
DGENRE=Blues
TTITLE0=Once Bitten, Twice Shy
TTITLE1=Stop! Don't Take That Train
TTITLE2=Ring Out The Old
TTITLE3=Hit Him
TTITLE4=Right Away
TTITLE5=Birthday
TTITLE6=The Prodigal Prig
TTITLE7=Red Balloon
TTITLE8=A Prayer
TTITLE9=Fall
TTITLE10=Golden Ring
TTITLE11=The Way It Is
TTITLE12=The Firefighter
TTITLE13=I'm Telling You
TTITLE14=Don't Judge Me By The Colour Of My Skin
EXTD=
EXTT0=
EXTT1=
EXTT2=
EXTT3=
EXTT4=
EXTT5=
EXTT6=
EXTT7=
EXTT8=
EXTT9=
EXTT10=
EXTT11=
EXTT12=
EXTT13=
EXTT14=
PLAYORDER=
